<svg width="258" height="60" viewBox="0 0 258 60" fill="none" xmlns="http://www.w3.org/2000/svg">
<g clip-path="url(#clip0_333_210)">
<path d="M89.9804 10.0666H95.5426L95.7595 10.2811V18.0672L95.9765 18.3538H100.894L101.111 18.1394V10.2811L101.328 10.0666H106.896L107.113 10.2811V30.8502C107.131 30.9341 107.128 31.021 107.106 31.1037C107.083 31.1864 107.04 31.2625 106.981 31.3256C106.923 31.3887 106.849 31.4369 106.768 31.4663C106.686 31.4957 106.599 31.5053 106.513 31.4944H101.687C101.601 31.5053 101.513 31.4957 101.432 31.4663C101.35 31.4369 101.277 31.3887 101.218 31.3256C101.159 31.2625 101.117 31.1864 101.094 31.1037C101.071 31.021 101.069 30.9341 101.087 30.8502V22.9207C101.062 22.8529 101.018 22.7934 100.96 22.7491C100.903 22.7049 100.833 22.6777 100.761 22.6708H95.9885L95.7715 22.8852V30.8146C95.7715 31.286 95.6026 31.5241 95.2716 31.5241H90.3004C90.2143 31.535 90.1269 31.5253 90.0453 31.4959C89.9638 31.4666 89.8906 31.4183 89.8319 31.3552C89.7731 31.2921 89.7306 31.2161 89.7077 31.1333C89.6848 31.0506 89.6823 30.9637 89.7005 30.8799V10.7109C89.6721 10.5876 89.6844 10.4586 89.7354 10.3427C89.7865 10.2268 89.8738 10.1301 89.9844 10.0666H89.9804ZM109.599 10.0666H122.107L122.318 10.2811V13.5003C122.326 13.5672 122.32 13.6353 122.298 13.6992C122.276 13.7632 122.239 13.8212 122.191 13.869C122.142 13.9167 122.084 13.9528 122.019 13.9746C121.954 13.9963 121.885 14.0031 121.818 13.9943H114.663C114.604 13.9852 114.543 13.99 114.486 14.0084C114.429 14.0267 114.378 14.058 114.335 14.0998C114.293 14.1416 114.261 14.1927 114.243 14.2488C114.224 14.305 114.22 14.3648 114.229 14.4232V18.1374L114.446 18.3518H120.515C120.591 18.3317 120.672 18.3293 120.75 18.3447C120.827 18.3601 120.901 18.3929 120.964 18.4406C121.027 18.4883 121.078 18.5496 121.113 18.6199C121.148 18.6901 121.166 18.7675 121.167 18.8459V21.9159C121.176 21.9743 121.171 22.034 121.153 22.0902C121.134 22.1464 121.102 22.1974 121.06 22.2392C121.018 22.281 120.966 22.3123 120.909 22.3307C120.852 22.349 120.792 22.3538 120.733 22.3447H114.664C114.605 22.3356 114.544 22.3404 114.487 22.3587C114.43 22.3771 114.379 22.4084 114.336 22.4502C114.294 22.492 114.262 22.5431 114.244 22.5992C114.225 22.6554 114.221 22.7151 114.23 22.7735V26.3504C114.23 27.1455 114.857 27.5431 116.112 27.5431H122.182C122.25 27.5341 122.32 27.541 122.386 27.563C122.451 27.585 122.511 27.6216 122.56 27.6701C122.609 27.7185 122.646 27.7774 122.668 27.8423C122.691 27.9071 122.697 27.9761 122.688 28.044V31.2573L122.471 31.4717H113.145C111.87 31.1789 110.757 30.4125 110.038 29.3315C109.585 28.4683 109.339 27.5134 109.32 26.5411V10.9253C109.32 10.3325 109.42 10.0666 109.604 10.0666H109.599ZM125.351 10.0666H139.016L139.233 10.2811V13.6406C139.243 13.713 139.237 13.7867 139.216 13.8568C139.195 13.9269 139.16 13.9919 139.112 14.0477C139.064 14.1036 139.005 14.1489 138.939 14.1809C138.872 14.2129 138.8 14.2308 138.726 14.2334H135.197C135.128 14.2247 135.059 14.2316 134.994 14.2538C134.928 14.276 134.869 14.3128 134.821 14.3613C134.772 14.4098 134.736 14.4687 134.714 14.5335C134.693 14.5982 134.687 14.667 134.697 14.7344V30.9451C134.697 31.3265 134.552 31.5379 134.263 31.5379H129.925C129.587 31.5379 129.425 31.2998 129.425 30.8285V14.4963L129.026 14.2097H125.599C125.122 14.2097 124.881 14.0724 124.881 13.8817V10.5666C124.881 10.435 124.934 10.3086 125.027 10.2148C125.121 10.1211 125.248 10.0675 125.381 10.0657L125.351 10.0666ZM141.683 10.0666H154.189L154.4 10.2811V13.5003C154.409 13.5672 154.402 13.6353 154.38 13.6992C154.358 13.7632 154.321 13.8212 154.273 13.869C154.224 13.9167 154.166 13.9528 154.101 13.9746C154.036 13.9963 153.967 14.0031 153.9 13.9943H146.745C146.686 13.985 146.625 13.9897 146.568 14.008C146.511 14.0262 146.459 14.0575 146.417 14.0993C146.375 14.1412 146.343 14.1923 146.324 14.2486C146.306 14.3049 146.301 14.3647 146.31 14.4232V18.1374L146.527 18.3518H152.596C152.673 18.3317 152.753 18.3293 152.831 18.3447C152.909 18.3601 152.982 18.3929 153.045 18.4406C153.108 18.4883 153.159 18.5496 153.194 18.6199C153.229 18.6901 153.248 18.7675 153.248 18.8459V21.9159C153.257 21.9743 153.252 22.034 153.234 22.0902C153.215 22.1464 153.183 22.1974 153.141 22.2392C153.099 22.281 153.047 22.3123 152.99 22.3307C152.933 22.349 152.873 22.3538 152.814 22.3447H146.745C146.686 22.3354 146.625 22.3401 146.568 22.3583C146.511 22.3766 146.459 22.4079 146.417 22.4497C146.375 22.4916 146.343 22.5427 146.324 22.5989C146.306 22.6552 146.301 22.715 146.31 22.7735V26.3504C146.31 27.1455 146.937 27.5431 148.193 27.5431H154.262C154.33 27.5343 154.4 27.5413 154.466 27.5634C154.531 27.5855 154.591 27.6221 154.64 27.6705C154.689 27.7189 154.726 27.7777 154.748 27.8425C154.77 27.9072 154.777 27.9762 154.769 28.044V31.2573L154.552 31.4717H145.231C143.956 31.1789 142.844 30.4125 142.125 29.3315C141.671 28.4683 141.426 27.5134 141.407 26.5411V10.9253C141.407 10.3325 141.507 10.0666 141.691 10.0666H141.683ZM157.151 10.0666H166.979C168.167 10.3347 169.23 10.9901 169.995 11.9272C170.575 12.5669 170.864 13.7592 170.864 15.5041V17.1493C170.864 18.7767 170.574 19.8438 169.995 20.3626L169.711 20.7203V20.8635C170.125 21.2738 170.446 21.7658 170.654 22.3073C170.862 22.8487 170.952 23.4275 170.918 24.0057V31.0765C170.881 31.204 170.802 31.3155 170.693 31.3933C170.584 31.471 170.452 31.5105 170.318 31.5053H166.27C166.184 31.5162 166.096 31.5066 166.015 31.4772C165.933 31.4478 165.86 31.3996 165.801 31.3365C165.743 31.2734 165.7 31.1973 165.677 31.1146C165.654 31.0318 165.652 30.9449 165.67 30.8611V23.9217C165.525 23.1266 165.123 22.7291 164.463 22.7291H162.442L162.152 23.0156V30.7307C162.152 31.2553 161.96 31.5211 161.553 31.5211H157.474C157.311 31.5056 157.16 31.4312 157.05 31.3124C156.939 31.1935 156.877 31.0384 156.874 30.8769L156.832 10.3078L157.049 10.0933L157.151 10.0666ZM162.206 14.4251V18.6403L162.423 18.8548H164.662C165.229 18.8548 165.597 18.4259 165.748 17.5702V15.2838C165.701 14.9459 165.525 14.6386 165.256 14.4254C164.986 14.2123 164.644 14.1096 164.3 14.1386H162.49L162.2 14.4251H162.206ZM176.685 10.0666H183.84C184.815 10.3081 185.695 10.8314 186.368 11.5696C186.959 12.2584 187.336 13.101 187.454 13.9963L187.526 15.928V25.056C187.526 27.5757 187.326 28.8375 186.926 28.8414C186.424 29.856 185.614 30.6901 184.609 31.2267L183.809 31.5132H176.666C175.305 31.065 174.168 30.1204 173.487 28.872C173.206 28.1943 173.082 27.463 173.125 26.7319V14.8066C173.062 13.7348 173.382 12.6752 174.029 11.8131C174.677 10.951 175.61 10.3412 176.666 10.0904L176.685 10.0666ZM178.417 15.1405V25.8722C178.417 26.7723 178.707 27.2259 179.286 27.2259C181.116 27.3254 182.031 27.0889 182.031 26.5164L182.102 25.8722V15.349C182.132 15.2136 182.133 15.0735 182.104 14.9378C182.076 14.8021 182.019 14.6738 181.937 14.5613C181.855 14.4489 181.75 14.3547 181.629 14.2849C181.508 14.2151 181.373 14.1713 181.234 14.1564H179.068C178.957 14.1774 178.852 14.2205 178.759 14.2829C178.665 14.3453 178.586 14.4258 178.525 14.5194C178.464 14.6131 178.423 14.718 178.404 14.8278C178.385 14.9377 178.39 15.0501 178.416 15.1583L178.417 15.1405ZM89.9804 36.2096H95.5426L95.7595 36.4241V44.2102L95.9765 44.4968H100.894L101.111 44.2824V36.425L101.328 36.2106H106.896L107.113 36.425V56.9942C107.131 57.078 107.128 57.1649 107.106 57.2477C107.083 57.3304 107.04 57.4065 106.981 57.4696C106.923 57.5326 106.849 57.5809 106.768 57.6103C106.686 57.6397 106.599 57.6493 106.513 57.6384H101.687C101.601 57.6493 101.513 57.6397 101.432 57.6103C101.35 57.5809 101.277 57.5326 101.218 57.4696C101.159 57.4065 101.117 57.3304 101.094 57.2477C101.071 57.1649 101.069 57.078 101.087 56.9942V49.0647C101.063 48.9731 101.005 48.8935 100.925 48.8416C100.844 48.7898 100.747 48.7693 100.653 48.7841H95.8805L95.6635 48.9985V56.928C95.6635 57.3993 95.4946 57.6374 95.1636 57.6374H90.1924C90.1063 57.6483 90.0189 57.6387 89.9374 57.6093C89.8559 57.5799 89.7827 57.5317 89.7239 57.4686C89.6652 57.4055 89.6226 57.3294 89.5997 57.2467C89.5768 57.1639 89.5744 57.077 89.5925 56.9932V36.8539C89.5641 36.7306 89.5764 36.6016 89.6275 36.4857C89.6785 36.3698 89.7658 36.2731 89.8764 36.2096H89.9914H89.9804ZM109.599 36.2096H122.107L122.318 36.4241V39.6433C122.326 39.7102 122.32 39.7783 122.298 39.8422C122.276 39.9061 122.239 39.9642 122.191 40.012C122.142 40.0597 122.084 40.0958 122.019 40.1175C121.954 40.1393 121.885 40.146 121.818 40.1373H114.663C114.604 40.1282 114.543 40.133 114.486 40.1514C114.429 40.1697 114.378 40.201 114.335 40.2428C114.293 40.2846 114.261 40.3356 114.243 40.3918C114.224 40.448 114.22 40.5077 114.229 40.5661V44.2804L114.446 44.4948H120.515C120.591 44.4747 120.672 44.4723 120.75 44.4877C120.827 44.503 120.901 44.5358 120.964 44.5835C121.027 44.6313 121.078 44.6926 121.113 44.7629C121.148 44.8331 121.166 44.9104 121.167 44.9888V48.0588C121.176 48.1172 121.171 48.177 121.153 48.2331C121.134 48.2893 121.102 48.3404 121.06 48.3822C121.018 48.424 120.966 48.4553 120.909 48.4736C120.852 48.492 120.792 48.4968 120.733 48.4877H114.664C114.605 48.4786 114.544 48.4834 114.487 48.5017C114.43 48.5201 114.379 48.5514 114.336 48.5932C114.294 48.635 114.262 48.686 114.244 48.7422C114.225 48.7984 114.221 48.8581 114.23 48.9165V52.4934C114.23 53.2885 114.857 53.686 116.112 53.686H122.182C122.25 53.6773 122.32 53.6843 122.386 53.7064C122.451 53.7285 122.511 53.7651 122.559 53.8135C122.608 53.8619 122.646 53.9207 122.668 53.9854C122.69 54.0502 122.697 54.1191 122.688 54.187V57.4003L122.471 57.6147H113.145C111.87 57.3218 110.757 56.5555 110.038 55.4745C109.585 54.6113 109.339 53.6564 109.32 52.6841V37.0683C109.32 36.4754 109.42 36.2096 109.604 36.2096H109.599ZM129.471 36.2096H137.06C137.513 36.2096 137.802 37.0001 137.929 38.5949L141.688 57.3756C141.663 57.4677 141.606 57.5478 141.526 57.6006C141.446 57.6535 141.349 57.6753 141.254 57.6621H136.771C136.385 57.6621 136.171 57.0693 136.047 55.9448C135.952 54.7997 135.71 53.671 135.33 52.5853H131.205C131.024 52.5853 130.71 54.1751 130.264 57.3548L129.98 57.6414H125.063L124.846 57.4269C126.242 50.4444 127.277 44.9217 127.953 40.8586L128.888 36.5001C129.041 36.3302 129.257 36.2271 129.487 36.2136L129.471 36.2096ZM131.354 48.5687L131.426 48.6339H134.171L134.322 48.4907L132.946 40.9189L132.88 40.8537H132.805C132.584 40.8537 132.362 41.6863 132.141 43.3516C131.783 45.0745 131.523 46.816 131.363 48.5677L131.354 48.5687ZM144.152 36.2096H149.502C149.84 36.2096 150.009 36.5196 150.009 37.1394V52.3561C149.997 52.4906 150.015 52.6262 150.062 52.7532C150.109 52.8801 150.183 52.9955 150.279 53.091C150.376 53.1865 150.493 53.26 150.621 53.3061C150.75 53.3522 150.887 53.3699 151.023 53.358H158.54C158.637 53.3356 158.738 53.3355 158.835 53.3577C158.932 53.3799 159.023 53.4238 159.1 53.486C159.177 53.5482 159.239 53.6271 159.281 53.7166C159.322 53.8061 159.343 53.9038 159.34 54.0022V57.4299L159.123 57.6443H148.425C147.101 57.3881 145.889 56.739 144.949 55.7838C144.304 54.9349 143.928 53.916 143.869 52.8561V36.8539C143.841 36.7306 143.853 36.6016 143.904 36.4857C143.955 36.3698 144.042 36.2731 144.152 36.2096ZM157.859 36.2096H171.524L171.741 36.4241V39.7836C171.751 39.856 171.745 39.9297 171.724 39.9998C171.703 40.0699 171.668 40.1349 171.62 40.1907C171.572 40.2465 171.513 40.2919 171.447 40.3239C171.381 40.3558 171.308 40.3737 171.234 40.3764H167.7C167.631 40.3674 167.562 40.3743 167.496 40.3964C167.431 40.4185 167.372 40.4553 167.323 40.5038C167.275 40.5524 167.239 40.6114 167.217 40.6762C167.196 40.741 167.19 40.8099 167.2 40.8774V57.0703C167.2 57.4517 167.055 57.6631 166.766 57.6631H162.428C162.091 57.6631 161.929 57.425 161.929 56.9537V40.6452L161.529 40.3586H158.072C157.595 40.3586 157.354 40.2213 157.354 40.0306V36.7155C157.354 36.5838 157.407 36.4575 157.5 36.3637C157.594 36.27 157.721 36.2164 157.854 36.2146L157.859 36.2096ZM174.191 36.2096H179.753L179.97 36.4241V44.2102L180.187 44.4968H185.097L185.314 44.2824V36.425L185.531 36.2106H191.099L191.316 36.425V56.9942C191.334 57.078 191.332 57.1649 191.309 57.2477C191.286 57.3304 191.243 57.4065 191.185 57.4696C191.126 57.5326 191.053 57.5809 190.971 57.6103C190.89 57.6397 190.802 57.6493 190.716 57.6384H185.89C185.804 57.6493 185.716 57.6397 185.635 57.6103C185.553 57.5809 185.48 57.5326 185.421 57.4696C185.363 57.4065 185.32 57.3304 185.297 57.2477C185.274 57.1649 185.272 57.078 185.29 56.9942V49.0647C185.266 48.9731 185.208 48.8935 185.128 48.8416C185.048 48.7898 184.951 48.7693 184.856 48.7841H180.084L179.867 48.9985V56.928C179.867 57.3993 179.698 57.6374 179.367 57.6374H174.481C174.395 57.6483 174.307 57.6387 174.226 57.6093C174.144 57.5799 174.071 57.5317 174.012 57.4686C173.953 57.4055 173.911 57.3294 173.888 57.2467C173.865 57.1639 173.863 57.077 173.881 56.9932V36.8539C173.852 36.7306 173.865 36.6016 173.916 36.4857C173.967 36.3698 174.054 36.2731 174.165 36.2096H174.191ZM198.449 36.2096H206.612C206.711 36.207 206.81 36.2271 206.901 36.2682C206.991 36.3092 207.071 36.3703 207.134 36.4466C207.197 36.523 207.242 36.6126 207.264 36.7085C207.286 36.8044 207.286 36.9042 207.264 37.0001V39.9812C207.279 40.0886 207.27 40.1982 207.235 40.3012C207.2 40.4042 207.142 40.4978 207.064 40.5746C206.987 40.6513 206.892 40.7091 206.788 40.7433C206.683 40.7775 206.572 40.7872 206.464 40.7717H199.695C199.612 40.7527 199.526 40.7549 199.444 40.778C199.363 40.801 199.288 40.8443 199.228 40.9036C199.168 40.9629 199.125 41.0363 199.101 41.117C199.078 41.1976 199.076 41.2828 199.095 41.3645V52.4539C199.097 52.6471 199.172 52.8327 199.304 52.9747C199.437 53.1167 199.618 53.205 199.813 53.2226H206.624C206.7 53.2025 206.781 53.2001 206.859 53.2155C206.936 53.2308 207.01 53.2637 207.073 53.3114C207.135 53.3591 207.187 53.4204 207.222 53.4907C207.257 53.561 207.275 53.6383 207.276 53.7167V57.0762C207.276 57.4576 207.131 57.6691 206.842 57.6691H197.575C196.558 57.428 195.632 56.9069 194.903 56.1662C193.985 55.1732 193.494 53.867 193.533 52.5231V40.8843C193.61 39.7124 194.094 38.6026 194.903 37.7422C195.792 36.873 196.977 36.3628 198.227 36.3114L198.444 36.2403L198.449 36.2096ZM214.063 36.2096H221.652C222.105 36.2096 222.394 37.0001 222.521 38.5949L226.28 57.3756C226.256 57.4677 226.198 57.5478 226.118 57.6006C226.038 57.6535 225.941 57.6753 225.846 57.6621H221.358C220.972 57.6621 220.758 57.0693 220.634 55.9448C220.538 54.7997 220.297 53.671 219.916 52.5853H215.792C215.612 52.5853 215.298 54.1751 214.852 57.3548L214.568 57.6414H209.65L209.433 57.4269C210.829 50.4444 211.865 44.9217 212.54 40.8586L213.475 36.5001C213.629 36.3302 213.844 36.2271 214.075 36.2136L214.063 36.2096ZM215.945 48.5687L216.017 48.6339H218.762L218.913 48.4907L217.537 40.9189L217.471 40.8537H217.392C217.171 40.8537 216.95 41.6863 216.728 43.3516C216.37 45.0745 216.11 46.816 215.95 48.5677L215.945 48.5687ZM228.656 36.2096H238.489C239.677 36.4776 240.74 37.133 241.505 38.0702C242.081 38.7098 242.37 39.9022 242.374 41.6471V43.2923C242.374 44.9197 242.084 45.9868 241.505 46.5056L241.222 46.8633V47.0065C241.635 47.4168 241.956 47.9088 242.164 48.4502C242.372 48.9917 242.462 49.5705 242.428 50.1487V57.2195C242.391 57.347 242.312 57.4585 242.203 57.5363C242.095 57.614 241.963 57.6535 241.828 57.6483H237.78C237.694 57.6592 237.607 57.6495 237.525 57.6201C237.444 57.5908 237.37 57.5425 237.312 57.4794C237.253 57.4163 237.21 57.3402 237.187 57.2575C237.165 57.1748 237.162 57.0879 237.18 57.0041V50.0943C237.036 49.2992 236.633 48.9017 235.973 48.9017H233.953L233.663 49.1882V56.9033C233.663 57.4279 233.47 57.6938 233.063 57.6938H228.984C228.822 57.6782 228.67 57.6039 228.56 57.485C228.449 57.3661 228.387 57.211 228.384 57.0495L228.342 36.4804L228.559 36.266L228.656 36.2096ZM233.712 40.5681V44.7833L233.929 44.9977H236.167C236.734 44.9977 237.102 44.5689 237.253 43.7132V41.4287C237.206 41.091 237.03 40.7839 236.76 40.571C236.491 40.3581 236.149 40.2555 235.805 40.2845H233.99L233.7 40.5711L233.712 40.5681ZM244.945 36.2096H257.451L257.662 36.4241V39.6433C257.671 39.7102 257.664 39.7781 257.642 39.842C257.62 39.9058 257.583 39.9638 257.535 40.0115C257.486 40.0592 257.428 40.0953 257.363 40.1171C257.299 40.1389 257.23 40.1458 257.162 40.1373H249.983C249.924 40.1282 249.864 40.133 249.807 40.1514C249.75 40.1697 249.698 40.201 249.656 40.2428C249.614 40.2846 249.582 40.3356 249.563 40.3918C249.545 40.448 249.54 40.5077 249.549 40.5661V44.2804L249.766 44.4948H255.805C255.882 44.4747 255.962 44.4723 256.04 44.4877C256.118 44.503 256.191 44.5358 256.254 44.5835C256.317 44.6313 256.368 44.6926 256.403 44.7629C256.439 44.8331 256.457 44.9104 256.457 44.9888V48.0588C256.466 48.1172 256.462 48.177 256.443 48.2331C256.424 48.2893 256.393 48.3404 256.35 48.3822C256.308 48.424 256.257 48.4553 256.2 48.4736C256.143 48.492 256.082 48.4968 256.023 48.4877H249.984C249.925 48.4786 249.865 48.4834 249.808 48.5017C249.751 48.5201 249.699 48.5514 249.657 48.5932C249.615 48.635 249.583 48.686 249.564 48.7422C249.546 48.7984 249.541 48.8581 249.55 48.9165V52.4934C249.55 53.2885 250.178 53.686 251.433 53.686H257.486C257.555 53.6773 257.624 53.6843 257.69 53.7064C257.756 53.7285 257.815 53.7651 257.864 53.8135C257.913 53.8619 257.95 53.9207 257.972 53.9854C257.995 54.0502 258.002 54.1191 257.993 54.187V57.4003L257.776 57.6147H248.455C247.18 57.3218 246.068 56.5555 245.349 55.4745C244.896 54.6113 244.65 53.6564 244.631 52.6841V37.0683C244.631 36.4754 244.731 36.2096 244.915 36.2096H244.945Z" fill="#0072BC"/>
<path fill-rule="evenodd" clip-rule="evenodd" d="M76.6724 30.6111C76.648 29.9771 76.4339 29.3646 76.0571 28.8509C75.6803 28.3372 75.1578 27.9454 74.5557 27.7252C73.9536 27.5049 73.2989 27.466 72.6744 27.6134C72.05 27.7609 71.4838 28.088 71.0475 28.5534C70.6111 29.0188 70.3243 29.6016 70.2232 30.2281C70.1221 30.8546 70.2114 31.4966 70.4796 32.073C70.7479 32.6494 71.1831 33.1342 71.7302 33.4662C72.2773 33.7982 72.9118 33.9623 73.5534 33.938C74.4134 33.9053 75.2251 33.5365 75.81 32.9126C76.3949 32.2887 76.7051 31.4609 76.6724 30.6111Z" fill="#0072BC"/>
<path fill-rule="evenodd" clip-rule="evenodd" d="M75.0495 18.2461C74.6527 17.7474 74.115 17.3761 73.5045 17.1793C72.894 16.9825 72.2382 16.969 71.62 17.1406C71.0018 17.3122 70.449 17.6611 70.0315 18.1432C69.614 18.6253 69.3506 19.2189 69.2746 19.8489C69.1986 20.4789 69.3134 21.1171 69.6045 21.6826C69.8957 22.2481 70.35 22.7156 70.9101 23.026C71.4702 23.3363 72.1108 23.4755 72.751 23.426C73.3912 23.3765 74.0021 23.1406 74.5065 22.7479C75.1823 22.2218 75.6191 21.4521 75.721 20.608C75.8228 19.7639 75.5813 18.9144 75.0495 18.2461Z" fill="#0072BC"/>
<path fill-rule="evenodd" clip-rule="evenodd" d="M65.2332 37.9922C64.8759 38.5194 64.6848 39.1395 64.6843 39.7741C64.6837 40.4086 64.8736 41.029 65.23 41.5568C65.5863 42.0847 66.0931 42.4963 66.6863 42.7394C67.2794 42.9826 67.9322 43.0465 68.5621 42.9229C69.192 42.7994 69.7706 42.4941 70.2249 42.0456C70.6791 41.597 70.9884 41.0255 71.1138 40.4031C71.2392 39.7808 71.1749 39.1358 70.9292 38.5495C70.6834 37.9633 70.2672 37.4623 69.7332 37.1098C69.0179 36.6377 68.1422 36.4655 67.2984 36.6309C66.4547 36.7964 65.7119 37.286 65.2332 37.9922Z" fill="#0072BC"/>
<path fill-rule="evenodd" clip-rule="evenodd" d="M6.49203 29.0964C6.47986 28.4622 6.27767 27.8459 5.91104 27.3252C5.5444 26.8046 5.02977 26.4031 4.43222 26.1714C3.83466 25.9398 3.181 25.8884 2.55388 26.0237C1.92676 26.1591 1.35434 26.4751 0.908977 26.9319C0.463616 27.3887 0.165313 27.9657 0.0517838 28.5899C-0.0617458 29.2142 0.0145938 29.8577 0.271152 30.4391C0.52771 31.0205 0.952966 31.5137 1.49316 31.8563C2.03335 32.1989 2.66423 32.3756 3.30603 32.364C3.7324 32.3563 4.15307 32.2656 4.54398 32.0972C4.93489 31.9288 5.28837 31.6859 5.58425 31.3825C5.88012 31.079 6.11258 30.7209 6.26834 30.3287C6.42411 29.9364 6.50012 29.5177 6.49203 29.0964Z" fill="#0072BC"/>
<path fill-rule="evenodd" clip-rule="evenodd" d="M6.55801 37.7482C6.17142 37.2415 5.64139 36.8594 5.035 36.6505C4.42862 36.4415 3.77313 36.4149 3.15147 36.5742C2.52981 36.7334 1.96992 37.0713 1.54266 37.5451C1.11539 38.0188 0.839953 38.6072 0.75119 39.2356C0.662426 39.8641 0.764324 40.5044 1.044 41.0757C1.32367 41.6469 1.76856 42.1233 2.32234 42.4447C2.87613 42.766 3.51393 42.9178 4.15505 42.8808C4.79617 42.8439 5.41179 42.6199 5.92401 42.2371C6.60997 41.7245 7.06201 40.9639 7.18088 40.1222C7.29975 39.2806 7.07573 38.4268 6.55801 37.7482Z" fill="#0072BC"/>
<path fill-rule="evenodd" clip-rule="evenodd" d="M6.27213 18.3894C5.90407 18.9092 5.70029 19.5253 5.68659 20.1596C5.67289 20.7938 5.84987 21.4179 6.19515 21.9528C6.54043 22.4877 7.0385 22.9094 7.62636 23.1645C8.21421 23.4197 8.86545 23.4968 9.4977 23.3862C10.1299 23.2757 10.7148 22.9823 11.1783 22.5432C11.6417 22.1041 11.963 21.5391 12.1015 20.9196C12.2399 20.3001 12.1893 19.654 11.9561 19.0629C11.7229 18.4718 11.3174 17.9623 10.7911 17.5989C10.0857 17.1119 9.21342 16.9215 8.36601 17.0698C7.51861 17.218 6.76546 17.6926 6.27213 18.3894Z" fill="#0072BC"/>
<path fill-rule="evenodd" clip-rule="evenodd" d="M65.728 16.267C65.4931 18.7945 65.4871 20.7806 65.1971 22.318C64.8832 23.981 62.8325 28.1607 61.5777 30.9036C61.5851 31.2817 61.5691 31.6598 61.5297 32.036C61.2767 34.9578 59.557 38.505 58.3921 41.1995C56.9024 44.6638 54.4467 47.6449 52.613 50.9471C51.2192 53.4568 48.8136 57.5525 46.8579 59.2342C45.838 60.1107 44.9752 60.0455 43.7024 59.9022C42.0435 59.7542 40.4214 59.333 38.9031 58.6562C38.4635 58.4431 38.0721 58.1441 37.7528 57.7773C37.4335 57.4104 37.1928 56.9833 37.0454 56.5219C35.9595 53.3975 36.4455 47.5787 34.0288 44.1154C31.1153 39.9417 31.4532 39.1848 27.3198 36.1919C25.962 35.2038 17.4743 33.9025 17.6673 32.2454C17.8603 30.457 19.791 29.1211 21.5947 28.8296C23.8204 28.4719 25.7751 28.2367 30.4934 29.8612C33.027 30.7435 39.47 36.6514 41.9196 35.5664C43.7995 34.68 45.4783 33.4266 46.8549 31.8818C49.3441 32.7806 52.0173 33.0671 54.6437 32.7168L55.3616 32.6031C57.7752 32.2158 60.2419 30.4293 60.5138 27.9047C60.6648 26.474 59.307 25.6509 58.1912 25.1559C57.0275 24.6784 55.8323 24.2799 54.6137 23.9632L53.8538 23.7547C55.4124 21.6795 56.8041 19.4868 58.0162 17.1968C58.5831 16.1 59.223 13.9538 59.7049 12.7968C60.3049 11.3146 61.1887 9.88686 61.8646 8.53416C62.4015 7.44726 62.9265 5.79713 63.4754 4.89105C64.7902 2.73305 67.0288 0.32408 69.7494 0.031604C71.6262 -0.170955 73.4489 0.562205 71.9571 2.7864C70.2983 5.2428 68.6506 7.16269 67.5108 9.89279C66.6359 11.9856 66.4789 14.1673 65.749 16.2541L65.728 16.267Z" fill="#0072BC"/>
<path fill-rule="evenodd" clip-rule="evenodd" d="M10.9493 43.7398C11.1843 41.2123 11.1903 39.2262 11.4802 37.6887C11.7942 36.0248 13.8449 31.8461 15.0997 29.1032C15.0922 28.7251 15.1083 28.3469 15.1477 27.9708C15.4006 25.049 17.1264 21.5018 18.2852 18.8072C19.775 15.343 22.2306 12.3619 24.0643 9.05971C25.4581 6.54995 27.8638 2.45428 29.8195 0.772549C30.8393 -0.10389 31.7022 -0.0386704 32.975 0.104603C34.6339 0.252513 36.256 0.673672 37.7743 1.35061C38.2139 1.56367 38.6052 1.86266 38.9245 2.22951C39.2439 2.59636 39.4845 3.02346 39.632 3.48489C40.7178 6.60924 40.2319 12.4281 42.6485 15.8914C45.5621 20.0651 45.2241 20.822 49.3575 23.8149C50.7153 24.803 59.203 26.1043 59.0101 27.7614C58.8171 29.5498 56.8864 30.8857 55.0826 31.1772C52.856 31.5349 50.9023 31.77 46.184 30.1456C43.6504 29.2633 37.2073 23.3544 34.7577 24.4404C32.8779 25.3268 31.1991 26.5802 29.8225 28.125C27.3332 27.2262 24.66 26.9397 22.0336 27.29L21.3158 27.4036C18.9021 27.791 16.4355 29.5775 16.1635 32.102C16.0126 33.5328 17.3704 34.3559 18.4862 34.8509C19.6498 35.3285 20.845 35.727 22.0636 36.0435L22.8235 36.252C21.2649 38.3273 19.8732 40.5199 18.6612 42.81C18.0942 43.9068 17.4543 46.0529 16.9724 47.21C16.3725 48.6921 15.4886 50.1189 14.8127 51.4667C14.2758 52.5536 13.7509 54.2027 13.202 55.1098C11.8872 57.2678 9.64851 59.6768 6.92792 59.9692C5.05121 60.1718 3.22848 59.4386 4.72026 57.2144C6.37901 54.758 8.02676 52.8382 9.16659 50.1081C10.0415 48.0153 10.1984 45.8336 10.9283 43.7467L10.9493 43.7398Z" fill="#0072BC"/>
<path fill-rule="evenodd" clip-rule="evenodd" d="M65.728 16.267C65.4931 18.7945 65.4871 20.7806 65.1971 22.318C64.8832 23.981 62.8325 28.1607 61.5777 30.9036C61.5851 31.2817 61.5691 31.6598 61.5297 32.036C61.2767 34.9578 59.557 38.505 58.3921 41.1995C56.9024 44.6638 54.4467 47.6449 52.613 50.9471C51.2192 53.4568 48.8136 57.5525 46.8579 59.2342C45.838 60.1107 44.9752 60.0455 43.7024 59.9022C42.0435 59.7542 40.4214 59.333 38.9031 58.6562C38.4635 58.4431 38.0721 58.1441 37.7528 57.7773C37.4335 57.4104 37.1928 56.9833 37.0454 56.5219C35.9595 53.3975 36.4455 47.5787 34.0288 44.1154C31.1153 39.9417 31.4532 39.1848 27.3198 36.1919C25.962 35.2038 17.4743 33.9025 17.6673 32.2454C17.8603 30.457 19.791 29.1211 21.5947 28.8296C23.8204 28.4719 25.7751 28.2367 30.4934 29.8612C33.027 30.7435 39.47 36.6514 41.9196 35.5664C43.7995 34.68 45.4783 33.4266 46.8549 31.8818C49.3441 32.7806 52.0173 33.0671 54.6437 32.7168L55.3616 32.6031C57.7752 32.2158 60.2419 30.4293 60.5138 27.9047C60.6648 26.474 59.307 25.6509 58.1912 25.1559C57.0275 24.6784 55.8323 24.2799 54.6137 23.9632L53.8538 23.7547C55.4124 21.6795 56.8041 19.4868 58.0162 17.1968C58.5831 16.1 59.223 13.9538 59.7049 12.7968C60.3049 11.3146 61.1887 9.88686 61.8646 8.53416C62.4015 7.44726 62.9265 5.79713 63.4754 4.89105C64.7902 2.73305 67.0288 0.32408 69.7494 0.031604C71.6262 -0.170955 73.4489 0.562205 71.9571 2.7864C70.2983 5.2428 68.6506 7.16269 67.5108 9.89279C66.6359 11.9856 66.4789 14.1673 65.749 16.2541L65.728 16.267Z" fill="#E11B22"/>
<path fill-rule="evenodd" clip-rule="evenodd" d="M10.9493 43.7398C11.1843 41.2123 11.1903 39.2262 11.4802 37.6887C11.7942 36.0248 13.8449 31.8461 15.0997 29.1032C15.0922 28.7251 15.1083 28.3469 15.1477 27.9708C15.4006 25.049 17.1264 21.5018 18.2852 18.8072C19.775 15.343 22.2306 12.3619 24.0643 9.05971C25.4581 6.54995 27.8638 2.45428 29.8195 0.772549C30.8393 -0.10389 31.7022 -0.0386704 32.975 0.104603C34.6339 0.252513 36.256 0.673672 37.7743 1.35061C38.2139 1.56367 38.6052 1.86266 38.9245 2.22951C39.2439 2.59636 39.4845 3.02346 39.632 3.48489C40.7178 6.60924 40.2319 12.4281 42.6485 15.8914C45.5621 20.0651 45.2241 20.822 49.3575 23.8149C50.7153 24.803 59.203 26.1043 59.0101 27.7614C58.8171 29.5498 56.8864 30.8857 55.0826 31.1772C52.856 31.5349 50.9023 31.77 46.184 30.1456C43.6504 29.2633 37.2073 23.3544 34.7577 24.4404C32.8779 25.3268 31.1991 26.5802 29.8225 28.125C27.3332 27.2262 24.66 26.9397 22.0336 27.29L21.3158 27.4036C18.9021 27.791 16.4355 29.5775 16.1635 32.102C16.0126 33.5328 17.3704 34.3559 18.4862 34.8509C19.6498 35.3285 20.845 35.727 22.0636 36.0435L22.8235 36.252C21.2649 38.3273 19.8732 40.5199 18.6612 42.81C18.0942 43.9068 17.4543 46.0529 16.9724 47.21C16.3725 48.6921 15.4886 50.1189 14.8127 51.4667C14.2758 52.5536 13.7509 54.2027 13.202 55.1098C11.8872 57.2678 9.64851 59.6768 6.92792 59.9692C5.05121 60.1718 3.22848 59.4386 4.72026 57.2144C6.37901 54.758 8.02676 52.8382 9.16659 50.1081C10.0415 48.0153 10.1984 45.8336 10.9283 43.7467L10.9493 43.7398Z" fill="#0072BC"/>
</g>
<defs>
<clipPath id="clip0_333_210">
<rect width="258" height="60" fill="white"/>
</clipPath>
</defs>
</svg>
